<mxfile host="app.diagrams.net" modified="2023-07-20T12:27:45.337Z" agent="Mozilla/5.0 (Windows NT 10.0; Win64; x64) AppleWebKit/537.36 (KHTML, like Gecko) Chrome/114.0.0.0 Safari/537.36 Edg/114.0.1823.86" version="21.6.3" etag="3Ee0zYE289QCByEvuS5t" type="github">
  <diagram name="Halaman-1" id="4W2LeknAuTOV8Bat-6C-">
    <mxGraphModel>
      <root>
        <mxCell id="0" />
        <mxCell id="1" parent="0" />
      </root>
    </mxGraphModel>
  </diagram>
</mxfile>
